# Blender v2.93.6 OBJ File: ''
# www.blender.org
mtllib box.mtl
o BezierCircle_BezierCircle.002
v 5.746069 5.515635 -4.216683
v 5.746177 5.515635 -4.215618
v 5.746141 5.515635 -4.214573
v 5.745971 5.515635 -4.213559
v 5.745673 5.515635 -4.212587
v 5.745255 5.515635 -4.211666
v 5.744725 5.515635 -4.210810
v 5.744091 5.515636 -4.210028
v 5.743360 5.515638 -4.209330
v 5.742540 5.515645 -4.208729
v 5.741638 5.515646 -4.208234
v 5.740664 5.515647 -4.207856
v 5.739623 5.515655 -4.207607
v 5.738558 5.515656 -4.207500
v 5.737513 5.515659 -4.207536
v 5.736499 5.515666 -4.207706
v 5.735527 5.515667 -4.208004
v 5.734606 5.515671 -4.208422
v 5.733750 5.515676 -4.208952
v 5.732968 5.515678 -4.209586
v 5.732270 5.515681 -4.210317
v 5.731668 5.515687 -4.211137
v 5.731174 5.515687 -4.212039
v 5.730796 5.515689 -4.213013
v 5.730547 5.515690 -4.214054
v 5.730440 5.515696 -4.215119
v 5.730475 5.515696 -4.216164
v 5.730646 5.515696 -4.217178
v 5.730944 5.515696 -4.218150
v 5.731362 5.515691 -4.219071
v 5.731892 5.515689 -4.219927
v 5.732526 5.515687 -4.220710
v 5.733257 5.515687 -4.221407
v 5.734077 5.515686 -4.222009
v 5.734979 5.515679 -4.222503
v 5.735953 5.515676 -4.222881
v 5.736994 5.515676 -4.223130
v 5.738059 5.515668 -4.223237
v 5.739104 5.515666 -4.223202
v 5.740118 5.515660 -4.223031
v 5.741090 5.515656 -4.222733
v 5.742011 5.515656 -4.222315
v 5.742867 5.515649 -4.221785
v 5.743649 5.515646 -4.221151
v 5.744347 5.515646 -4.220420
v 5.744948 5.515639 -4.219600
v 5.745443 5.515637 -4.218698
v 5.745821 5.515635 -4.217724
l 1 2
l 2 3
l 3 4
l 4 5
l 5 6
l 6 7
l 7 8
l 8 9
l 9 10
l 10 11
l 11 12
l 12 13
l 13 14
l 14 15
l 15 16
l 16 17
l 17 18
l 18 19
l 19 20
l 20 21
l 21 22
l 22 23
l 23 24
l 24 25
l 25 26
l 26 27
l 27 28
l 28 29
l 29 30
l 30 31
l 31 32
l 32 33
l 33 34
l 34 35
l 35 36
l 36 37
l 37 38
l 38 39
l 39 40
l 40 41
l 41 42
l 42 43
l 43 44
l 44 45
l 45 46
l 46 47
l 47 48
l 48 1
o BezierCircle_BezierCircle.001
v 5.746069 5.515635 -4.216682
v 5.746177 5.515635 -4.215617
v 5.746141 5.515635 -4.214572
v 5.745971 5.515635 -4.213558
v 5.745673 5.515635 -4.212586
v 5.745255 5.515635 -4.211665
v 5.744725 5.515635 -4.210809
v 5.744091 5.515636 -4.210027
v 5.743360 5.515638 -4.209329
v 5.742540 5.515646 -4.208728
v 5.741638 5.515646 -4.208233
v 5.740664 5.515647 -4.207855
v 5.739623 5.515656 -4.207606
v 5.738558 5.515656 -4.207499
v 5.737513 5.515659 -4.207535
v 5.736499 5.515666 -4.207705
v 5.735527 5.515667 -4.208003
v 5.734606 5.515671 -4.208421
v 5.733750 5.515676 -4.208951
v 5.732968 5.515678 -4.209585
v 5.732270 5.515681 -4.210316
v 5.731668 5.515687 -4.211136
v 5.731174 5.515687 -4.212038
v 5.730796 5.515689 -4.213012
v 5.730547 5.515690 -4.214053
v 5.730440 5.515697 -4.215118
v 5.730475 5.515697 -4.216163
v 5.730646 5.515697 -4.217177
v 5.730944 5.515697 -4.218149
v 5.731362 5.515691 -4.219070
v 5.731892 5.515689 -4.219926
v 5.732526 5.515687 -4.220709
v 5.733257 5.515687 -4.221406
v 5.734077 5.515687 -4.222008
v 5.734979 5.515679 -4.222502
v 5.735953 5.515676 -4.222880
v 5.736994 5.515676 -4.223129
v 5.738059 5.515668 -4.223236
v 5.739104 5.515666 -4.223201
v 5.740118 5.515660 -4.223030
v 5.741090 5.515656 -4.222732
v 5.742011 5.515656 -4.222314
v 5.742867 5.515649 -4.221784
v 5.743649 5.515646 -4.221150
v 5.744347 5.515646 -4.220419
v 5.744948 5.515639 -4.219599
v 5.745443 5.515637 -4.218697
v 5.745821 5.515635 -4.217723
l 49 50
l 50 51
l 51 52
l 52 53
l 53 54
l 54 55
l 55 56
l 56 57
l 57 58
l 58 59
l 59 60
l 60 61
l 61 62
l 62 63
l 63 64
l 64 65
l 65 66
l 66 67
l 67 68
l 68 69
l 69 70
l 70 71
l 71 72
l 72 73
l 73 74
l 74 75
l 75 76
l 76 77
l 77 78
l 78 79
l 79 80
l 80 81
l 81 82
l 82 83
l 83 84
l 84 85
l 85 86
l 86 87
l 87 88
l 88 89
l 89 90
l 90 91
l 91 92
l 92 93
l 93 94
l 94 95
l 96 49
l 95 96
o BezierCircle_BezierCircle.003
v 5.746069 5.515635 -4.216683
v 5.746177 5.515635 -4.215618
v 5.746141 5.515635 -4.214573
v 5.745971 5.515635 -4.213559
v 5.745673 5.515635 -4.212587
v 5.745255 5.515635 -4.211666
v 5.744725 5.515635 -4.210810
v 5.744091 5.515636 -4.210028
v 5.743360 5.515638 -4.209330
v 5.742540 5.515645 -4.208729
v 5.741638 5.515646 -4.208234
v 5.740664 5.515647 -4.207856
v 5.739623 5.515655 -4.207607
v 5.738558 5.515656 -4.207500
v 5.737513 5.515659 -4.207536
v 5.736499 5.515666 -4.207706
v 5.735527 5.515667 -4.208004
v 5.734606 5.515671 -4.208422
v 5.733750 5.515676 -4.208952
v 5.732968 5.515678 -4.209586
v 5.732270 5.515681 -4.210317
v 5.731668 5.515687 -4.211137
v 5.731174 5.515687 -4.212039
v 5.730796 5.515689 -4.213013
v 5.730547 5.515690 -4.214054
v 5.730440 5.515696 -4.215119
v 5.730475 5.515696 -4.216164
v 5.730646 5.515696 -4.217178
v 5.730944 5.515696 -4.218150
v 5.731362 5.515691 -4.219071
v 5.731892 5.515689 -4.219927
v 5.732526 5.515687 -4.220710
v 5.733257 5.515687 -4.221407
v 5.734077 5.515686 -4.222009
v 5.734979 5.515679 -4.222503
v 5.735953 5.515676 -4.222881
v 5.736994 5.515676 -4.223130
v 5.738059 5.515668 -4.223237
v 5.739104 5.515666 -4.223202
v 5.740118 5.515660 -4.223031
v 5.741090 5.515656 -4.222733
v 5.742011 5.515656 -4.222315
v 5.742867 5.515649 -4.221785
v 5.743649 5.515646 -4.221151
v 5.744347 5.515646 -4.220420
v 5.744948 5.515639 -4.219600
v 5.745443 5.515637 -4.218698
v 5.745821 5.515635 -4.217724
l 97 98
l 98 99
l 99 100
l 100 101
l 101 102
l 102 103
l 103 104
l 104 105
l 105 106
l 106 107
l 107 108
l 108 109
l 109 110
l 110 111
l 111 112
l 112 113
l 113 114
l 114 115
l 115 116
l 116 117
l 117 118
l 118 119
l 119 120
l 120 121
l 121 122
l 122 123
l 123 124
l 124 125
l 125 126
l 126 127
l 127 128
l 128 129
l 129 130
l 130 131
l 131 132
l 132 133
l 133 134
l 134 135
l 135 136
l 136 137
l 137 138
l 138 139
l 139 140
l 140 141
l 141 142
l 142 143
l 143 144
l 144 97
o Cube.001
v 0.209423 0.209423 -0.209423
v -0.209423 0.209423 -0.209423
v -0.163858 0.212680 -0.163858
v 0.163858 0.212680 -0.163858
v 0.209423 -0.209423 0.209423
v 0.209423 -0.209423 -0.209423
v 0.209423 0.150250 -0.209423
v 0.209423 0.150250 0.209423
v 0.209423 0.209423 0.209423
v -0.209423 0.209423 0.209423
v -0.209423 0.209173 0.209423
v 0.209423 0.209173 0.209423
v -0.209423 -0.209423 -0.209423
v -0.209423 -0.209423 0.209423
v -0.209423 0.150250 0.209423
v 0.209423 0.209173 -0.209423
v -0.209423 0.209173 -0.209423
v -0.163858 -0.171784 -0.163859
v 0.163858 -0.171784 -0.163859
v 0.163858 0.212680 0.163859
v -0.163858 0.212680 0.163859
v -0.163858 -0.171784 0.163858
v 0.163858 -0.171784 0.163858
v 0.230670 0.213251 0.230670
v 0.230670 0.213251 -0.230670
v -0.230670 0.213251 -0.230670
v -0.230670 0.213251 0.230670
v -0.209423 0.150250 -0.209423
v -0.230670 0.148350 0.230670
v -0.230670 0.148350 -0.230670
v 0.230670 0.148350 -0.230670
v 0.230670 0.148350 0.230670
vt 0.625000 0.500000
vt 0.625000 0.250000
vt 0.625000 0.250000
vt 0.625000 0.500000
vt 0.375000 0.750000
vt 0.375000 0.500000
vt 0.375000 0.500000
vt 0.375000 0.750000
vt 0.625000 0.750000
vt 0.625000 1.000000
vt 0.625000 1.000000
vt 0.625000 0.750000
vt 0.125000 0.500000
vt 0.125000 0.750000
vt 0.125000 0.750000
vt 0.625000 0.500000
vt 0.625000 0.250000
vt 0.625000 0.250000
vt 0.625000 0.500000
vt 0.625000 0.750000
vt 0.625000 1.000000
vt 0.625000 0.000000
vt 0.625000 0.000000
vt 0.875000 0.500000
vt 0.875000 0.750000
vt 0.625000 0.750000
vt 0.625000 0.000000
vt 0.625000 1.000000
vt 0.625000 0.750000
vt 0.625000 0.500000
vt 0.625000 0.000000
vt 0.625000 0.250000
vt 0.625000 0.000000
vt 0.125000 0.500000
vt 0.125000 0.750000
vt 0.125000 0.500000
vt 0.375000 0.500000
vt 0.375000 0.750000
vt 0.625000 1.000000
vt 0.375000 1.000000
vt 0.375000 0.000000
vt 0.375000 0.250000
vn 0.0000 0.9975 -0.0713
vn 1.0000 0.0000 0.0000
vn 0.0000 0.0000 1.0000
vn 0.0000 -1.0000 -0.0000
vn 0.0000 0.0000 -1.0000
vn 0.0000 0.9975 0.0713
vn -0.0713 0.9975 0.0000
vn 0.0713 0.9975 0.0000
vn 0.0000 1.0000 0.0000
vn -1.0000 0.0000 0.0000
vn -0.1885 0.9821 0.0000
vn 0.1885 0.9821 0.0000
vn 0.0891 -0.9960 -0.0000
vn -0.0891 -0.9960 -0.0000
vn 0.0000 -0.9960 0.0891
vn 0.0000 0.9821 0.1885
vn 0.0000 -0.9960 -0.0891
vn 0.0000 0.9821 -0.1885
usemtl Material.004
s 1
f 145/1/1 146/2/1 147/3/1 148/4/1
f 149/5/2 150/6/2 151/7/2 152/8/2
f 153/9/3 154/10/3 155/11/3 156/12/3
f 157/13/4 150/6/4 149/5/4 158/14/4
f 158/14/3 149/5/3 152/8/3 159/15/3
f 146/2/5 145/1/5 160/16/5 161/17/5
f 148/4/3 147/3/3 162/18/3 163/19/3
f 154/10/6 153/9/6 164/20/6 165/21/6
f 146/2/7 154/22/7 165/23/7 147/3/7
f 153/9/8 145/1/8 148/4/8 164/20/8
f 163/19/9 162/24/9 166/25/9 167/26/9
f 164/20/10 148/4/10 163/19/10 167/26/10
f 147/3/2 165/23/2 166/27/2 162/18/2
f 165/21/5 164/20/5 167/26/5 166/28/5
f 160/16/11 156/12/11 168/29/11 169/30/11
f 155/31/12 161/17/12 170/32/12 171/33/12
f 172/34/13 159/15/13 173/35/13 174/36/13
f 152/8/14 151/7/14 175/37/14 176/38/14
f 157/13/10 158/14/10 159/15/10 172/34/10
f 154/22/10 146/2/10 161/17/10 155/31/10
f 145/1/2 153/9/2 156/12/2 160/16/2
f 150/6/5 157/13/5 172/34/5 151/7/5
f 176/38/3 168/29/3 171/39/3 173/40/3
f 173/41/10 171/33/10 170/32/10 174/42/10
f 175/37/2 169/30/2 168/29/2 176/38/2
f 174/42/5 170/32/5 169/30/5 175/37/5
f 151/7/15 172/34/15 174/36/15 175/37/15
f 161/17/16 160/16/16 169/30/16 170/32/16
f 159/15/17 152/8/17 176/38/17 173/35/17
f 156/12/18 155/11/18 171/39/18 168/29/18
