# Blender v2.93.6 OBJ File: ''
# www.blender.org
mtllib table.mtl
o BezierCircle_BezierCircle.002
v 5.746069 5.515635 -4.216683
v 5.746177 5.515635 -4.215618
v 5.746141 5.515635 -4.214573
v 5.745971 5.515635 -4.213559
v 5.745673 5.515635 -4.212587
v 5.745255 5.515635 -4.211666
v 5.744725 5.515635 -4.210810
v 5.744091 5.515636 -4.210028
v 5.743360 5.515638 -4.209330
v 5.742540 5.515645 -4.208729
v 5.741638 5.515646 -4.208234
v 5.740664 5.515647 -4.207856
v 5.739623 5.515655 -4.207607
v 5.738558 5.515656 -4.207500
v 5.737513 5.515659 -4.207536
v 5.736499 5.515666 -4.207706
v 5.735527 5.515667 -4.208004
v 5.734606 5.515671 -4.208422
v 5.733750 5.515676 -4.208952
v 5.732968 5.515678 -4.209586
v 5.732270 5.515681 -4.210317
v 5.731668 5.515687 -4.211137
v 5.731174 5.515687 -4.212039
v 5.730796 5.515689 -4.213013
v 5.730547 5.515690 -4.214054
v 5.730440 5.515696 -4.215119
v 5.730475 5.515696 -4.216164
v 5.730646 5.515696 -4.217178
v 5.730944 5.515696 -4.218150
v 5.731362 5.515691 -4.219071
v 5.731892 5.515689 -4.219927
v 5.732526 5.515687 -4.220710
v 5.733257 5.515687 -4.221407
v 5.734077 5.515686 -4.222009
v 5.734979 5.515679 -4.222503
v 5.735953 5.515676 -4.222881
v 5.736994 5.515676 -4.223130
v 5.738059 5.515668 -4.223237
v 5.739104 5.515666 -4.223202
v 5.740118 5.515660 -4.223031
v 5.741090 5.515656 -4.222733
v 5.742011 5.515656 -4.222315
v 5.742867 5.515649 -4.221785
v 5.743649 5.515646 -4.221151
v 5.744347 5.515646 -4.220420
v 5.744948 5.515639 -4.219600
v 5.745443 5.515637 -4.218698
v 5.745821 5.515635 -4.217724
l 1 2
l 2 3
l 3 4
l 4 5
l 5 6
l 6 7
l 7 8
l 8 9
l 9 10
l 10 11
l 11 12
l 12 13
l 13 14
l 14 15
l 15 16
l 16 17
l 17 18
l 18 19
l 19 20
l 20 21
l 21 22
l 22 23
l 23 24
l 24 25
l 25 26
l 26 27
l 27 28
l 28 29
l 29 30
l 30 31
l 31 32
l 32 33
l 33 34
l 34 35
l 35 36
l 36 37
l 37 38
l 38 39
l 39 40
l 40 41
l 41 42
l 42 43
l 43 44
l 44 45
l 45 46
l 46 47
l 47 48
l 48 1
o BezierCircle_BezierCircle.001
v 5.746069 5.515635 -4.216682
v 5.746177 5.515635 -4.215617
v 5.746141 5.515635 -4.214572
v 5.745971 5.515635 -4.213558
v 5.745673 5.515635 -4.212586
v 5.745255 5.515635 -4.211665
v 5.744725 5.515635 -4.210809
v 5.744091 5.515636 -4.210027
v 5.743360 5.515638 -4.209329
v 5.742540 5.515646 -4.208728
v 5.741638 5.515646 -4.208233
v 5.740664 5.515647 -4.207855
v 5.739623 5.515656 -4.207606
v 5.738558 5.515656 -4.207499
v 5.737513 5.515659 -4.207535
v 5.736499 5.515666 -4.207705
v 5.735527 5.515667 -4.208003
v 5.734606 5.515671 -4.208421
v 5.733750 5.515676 -4.208951
v 5.732968 5.515678 -4.209585
v 5.732270 5.515681 -4.210316
v 5.731668 5.515687 -4.211136
v 5.731174 5.515687 -4.212038
v 5.730796 5.515689 -4.213012
v 5.730547 5.515690 -4.214053
v 5.730440 5.515697 -4.215118
v 5.730475 5.515697 -4.216163
v 5.730646 5.515697 -4.217177
v 5.730944 5.515697 -4.218149
v 5.731362 5.515691 -4.219070
v 5.731892 5.515689 -4.219926
v 5.732526 5.515687 -4.220709
v 5.733257 5.515687 -4.221406
v 5.734077 5.515687 -4.222008
v 5.734979 5.515679 -4.222502
v 5.735953 5.515676 -4.222880
v 5.736994 5.515676 -4.223129
v 5.738059 5.515668 -4.223236
v 5.739104 5.515666 -4.223201
v 5.740118 5.515660 -4.223030
v 5.741090 5.515656 -4.222732
v 5.742011 5.515656 -4.222314
v 5.742867 5.515649 -4.221784
v 5.743649 5.515646 -4.221150
v 5.744347 5.515646 -4.220419
v 5.744948 5.515639 -4.219599
v 5.745443 5.515637 -4.218697
v 5.745821 5.515635 -4.217723
l 49 50
l 50 51
l 51 52
l 52 53
l 53 54
l 54 55
l 55 56
l 56 57
l 57 58
l 58 59
l 59 60
l 60 61
l 61 62
l 62 63
l 63 64
l 64 65
l 65 66
l 66 67
l 67 68
l 68 69
l 69 70
l 70 71
l 71 72
l 72 73
l 73 74
l 74 75
l 75 76
l 76 77
l 77 78
l 78 79
l 79 80
l 80 81
l 81 82
l 82 83
l 83 84
l 84 85
l 85 86
l 86 87
l 87 88
l 88 89
l 89 90
l 90 91
l 91 92
l 92 93
l 93 94
l 94 95
l 96 49
l 95 96
o table_pCube9.001
v -0.587497 -0.302508 -0.310029
v -0.549837 -0.302508 -0.310029
v -0.549837 0.276990 -0.310028
v -0.587497 0.276990 -0.310028
v -0.549837 0.276990 -0.357288
v -0.587497 0.276990 -0.357288
v -0.549837 -0.302508 -0.357289
v -0.587497 -0.302508 -0.357289
v 0.497951 -0.303611 -0.306408
v 0.535610 -0.303611 -0.306408
v 0.535610 0.223191 -0.306407
v 0.497951 0.223191 -0.306407
v 0.535610 0.223191 -0.353665
v 0.497951 0.223191 -0.353665
v 0.535610 -0.303610 -0.353666
v 0.497951 -0.303610 -0.353666
v -0.587497 0.224309 0.351595
v 0.542287 0.224309 0.351595
v 0.542287 0.276989 0.351596
v -0.587497 0.276989 0.351596
v 0.542287 0.276989 0.342144
v -0.587497 0.276989 0.342144
v 0.542287 0.224309 0.342144
v -0.587497 0.224309 0.342144
v -0.587497 -0.302493 0.342144
v -0.549837 -0.302493 0.342144
v -0.549837 0.224309 0.342144
v -0.587497 0.224309 0.342144
v -0.549837 0.224309 0.294885
v -0.587497 0.224309 0.294885
v -0.549837 -0.302493 0.294884
v -0.587497 -0.302493 0.294884
v -0.631751 0.277867 0.397318
v 0.573351 0.277867 0.397318
v 0.573351 0.298939 0.397318
v -0.631751 0.298939 0.397318
v 0.573351 0.298940 -0.406083
v -0.631751 0.298940 -0.406083
v 0.573351 0.277868 -0.406083
v -0.631751 0.277868 -0.406083
v -0.594173 0.223191 -0.353665
v 0.535610 0.223191 -0.353665
v 0.535610 0.275871 -0.353665
v -0.594173 0.275871 -0.353665
v 0.535610 0.275871 -0.363118
v -0.594173 0.275871 -0.363118
v 0.535610 0.223191 -0.363118
v -0.594173 0.223191 -0.363118
v 0.534754 0.224309 0.342144
v 0.542287 0.224309 0.342144
v 0.542287 0.276989 0.342144
v 0.534754 0.276989 0.342144
v 0.542287 0.276990 -0.366739
v 0.534754 0.276990 -0.366739
v 0.542287 0.224309 -0.366739
v 0.534754 0.224309 -0.366739
v -0.595029 0.224309 0.351595
v -0.587497 0.224309 0.351595
v -0.587497 0.276989 0.351596
v -0.595029 0.276989 0.351596
v -0.587497 0.276990 -0.357288
v -0.595029 0.276990 -0.357288
v -0.587497 0.224309 -0.357288
v -0.595029 0.224309 -0.357288
v 0.497095 -0.302493 0.342144
v 0.534754 -0.302493 0.342144
v 0.534754 0.224309 0.342144
v 0.497095 0.224309 0.342144
v 0.534754 0.224309 0.294885
v 0.497095 0.224309 0.294885
v 0.534754 -0.302493 0.294884
v 0.497095 -0.302493 0.294884
vt 0.318943 0.003090
vt 0.368427 0.003090
vt 0.368427 0.497928
vt 0.318943 0.497928
vt 0.105730 0.552403
vt 0.105730 0.502920
vt 0.155214 0.502920
vt 0.155214 0.552403
vt 0.828419 0.501191
vt 0.778935 0.501191
vt 0.778935 0.006356
vt 0.828419 0.006356
vt 0.370180 0.551444
vt 0.370180 0.501960
vt 0.419664 0.501960
vt 0.419664 0.551444
vt 0.424723 0.503173
vt 0.474206 0.503173
vt 0.474206 0.998008
vt 0.424723 0.998008
vt 0.371833 0.002377
vt 0.421317 0.002377
vt 0.421317 0.497214
vt 0.371833 0.497214
vt 0.107383 0.002619
vt 0.156867 0.002619
vt 0.156867 0.497456
vt 0.107383 0.497456
vt 0.158620 0.552930
vt 0.158620 0.503447
vt 0.208104 0.503447
vt 0.208104 0.552930
vt 0.584943 0.498000
vt 0.535460 0.498000
vt 0.535460 0.003165
vt 0.584943 0.003165
vt 0.317290 0.552449
vt 0.317290 0.502965
vt 0.366774 0.502965
vt 0.366774 0.552449
vt 0.590002 0.002377
vt 0.639485 0.002377
vt 0.639485 0.497212
vt 0.590002 0.497212
vt 0.160273 0.002940
vt 0.209757 0.002940
vt 0.209757 0.497778
vt 0.160273 0.497778
vt 0.251798 0.016880
vt 0.251798 0.003612
vt 0.252240 0.003612
vt 0.252240 0.016880
vt 0.258951 0.016703
vt 0.258951 0.003435
vt 0.259039 0.003435
vt 0.259039 0.016703
vt 0.287563 0.017043
vt 0.287563 0.003775
vt 0.288005 0.003775
vt 0.288005 0.017043
vt 0.266104 0.015818
vt 0.266104 0.002550
vt 0.266192 0.002550
vt 0.266192 0.015818
vt 0.109487 0.069519
vt 0.096218 0.069519
vt 0.096218 0.003177
vt 0.109486 0.003177
vt 0.149866 0.002890
vt 0.163135 0.002890
vt 0.163135 0.069232
vt 0.149866 0.069232
vt 0.213163 0.003314
vt 0.262647 0.003314
vt 0.262647 0.498152
vt 0.213163 0.498152
vt 0.001603 0.552061
vt 0.001603 0.502577
vt 0.051086 0.502577
vt 0.051086 0.552061
vt 0.694027 0.496827
vt 0.644544 0.496827
vt 0.644544 0.001992
vt 0.694027 0.001992
vt 0.479265 0.552547
vt 0.479265 0.503063
vt 0.528748 0.503063
vt 0.528748 0.552547
vt 0.699086 0.002377
vt 0.748570 0.002377
vt 0.748570 0.497212
vt 0.699086 0.497212
vt 0.266053 0.002377
vt 0.315537 0.002377
vt 0.315537 0.497214
vt 0.266053 0.497214
vt 0.001893 0.001995
vt 0.331371 0.001995
vt 0.331371 0.006114
vt 0.001893 0.006114
vt 0.338727 0.331464
vt 0.338727 0.001992
vt 0.513759 0.001992
vt 0.513759 0.331464
vt 0.617722 0.664725
vt 0.617722 0.335253
vt 0.621840 0.335253
vt 0.621840 0.664725
vt 0.282420 0.335263
vt 0.611898 0.335263
vt 0.611898 0.510298
vt 0.282420 0.510298
vt 0.001892 0.668530
vt 0.331363 0.668530
vt 0.331363 0.676282
vt 0.001892 0.676282
vt 0.338728 0.668530
vt 0.668206 0.668530
vt 0.668206 0.676282
vt 0.338728 0.676282
vt 0.230338 0.016880
vt 0.230338 0.003612
vt 0.230781 0.003612
vt 0.230781 0.016880
vt 0.237492 0.016703
vt 0.237492 0.003435
vt 0.237580 0.003435
vt 0.237580 0.016703
vt 0.280410 0.017043
vt 0.280410 0.003775
vt 0.280852 0.003775
vt 0.280852 0.017043
vt 0.244645 0.015818
vt 0.244645 0.002550
vt 0.244733 0.002550
vt 0.244733 0.015818
vt 0.091604 0.069519
vt 0.078335 0.069519
vt 0.078335 0.003177
vt 0.091604 0.003177
vt 0.131984 0.002890
vt 0.145252 0.002890
vt 0.145252 0.069232
vt 0.131984 0.069232
vt 0.114101 0.002872
vt 0.127369 0.002872
vt 0.127369 0.069214
vt 0.114101 0.069214
vt 0.001440 0.002877
vt 0.014708 0.002877
vt 0.014708 0.998009
vt 0.001440 0.998009
vt 0.198900 0.070403
vt 0.185632 0.070403
vt 0.185632 0.004063
vt 0.198900 0.004063
vt 0.019322 0.001992
vt 0.032591 0.001992
vt 0.032591 0.997123
vt 0.019322 0.997123
vt 0.714961 0.016158
vt 0.714961 0.002890
vt 0.715845 0.002890
vt 0.715845 0.016158
vt 0.223185 0.015331
vt 0.223185 0.002063
vt 0.224070 0.002063
vt 0.224070 0.015331
vt 0.167749 0.002872
vt 0.181018 0.002872
vt 0.181018 0.069214
vt 0.167749 0.069214
vt 0.038993 0.002877
vt 0.052262 0.002877
vt 0.052262 0.998009
vt 0.038993 0.998009
vt 0.216782 0.070403
vt 0.203514 0.070403
vt 0.203515 0.004063
vt 0.216783 0.004063
vt 0.058664 0.001992
vt 0.071933 0.001992
vt 0.071933 0.997123
vt 0.058664 0.997123
vt 0.720326 0.016158
vt 0.720326 0.002890
vt 0.721210 0.002890
vt 0.721210 0.016158
vt 0.273257 0.015331
vt 0.273257 0.002063
vt 0.274141 0.002063
vt 0.274141 0.015331
vt 0.001603 0.003455
vt 0.051087 0.003455
vt 0.051087 0.498293
vt 0.001603 0.498293
vt 0.535460 0.551515
vt 0.535460 0.502032
vt 0.584943 0.502032
vt 0.584943 0.551515
vt 0.475859 0.498051
vt 0.426375 0.498051
vt 0.426375 0.003216
vt 0.475859 0.003216
vt 0.213163 0.552338
vt 0.213163 0.502854
vt 0.262647 0.502854
vt 0.262647 0.552338
vt 0.480918 0.003386
vt 0.530401 0.003386
vt 0.530401 0.498221
vt 0.480918 0.498221
vt 0.054493 0.002078
vt 0.103977 0.002078
vt 0.103977 0.496916
vt 0.054493 0.496916
vn 0.0000 -0.0000 1.0000
vn 0.0000 1.0000 0.0000
vn 0.0000 0.0000 -1.0000
vn 0.0000 -1.0000 0.0000
vn 1.0000 0.0000 0.0000
vn -1.0000 0.0000 0.0000
usemtl initialShadingGroup.001
s 1
f 97/1/1 98/2/1 99/3/1 100/4/1
f 100/5/2 99/6/2 101/7/2 102/8/2
f 102/9/3 101/10/3 103/11/3 104/12/3
f 104/13/4 103/14/4 98/15/4 97/16/4
f 98/17/5 103/18/5 101/19/5 99/20/5
f 104/21/6 97/22/6 100/23/6 102/24/6
f 105/25/1 106/26/1 107/27/1 108/28/1
f 108/29/2 107/30/2 109/31/2 110/32/2
f 110/33/3 109/34/3 111/35/3 112/36/3
f 112/37/4 111/38/4 106/39/4 105/40/4
f 106/41/5 111/42/5 109/43/5 107/44/5
f 112/45/6 105/46/6 108/47/6 110/48/6
f 113/49/1 114/50/1 115/51/1 116/52/1
f 116/53/2 115/54/2 117/55/2 118/56/2
f 118/57/3 117/58/3 119/59/3 120/60/3
f 120/61/4 119/62/4 114/63/4 113/64/4
f 114/65/5 119/66/5 117/67/5 115/68/5
f 120/69/6 113/70/6 116/71/6 118/72/6
f 121/73/1 122/74/1 123/75/1 124/76/1
f 124/77/2 123/78/2 125/79/2 126/80/2
f 126/81/3 125/82/3 127/83/3 128/84/3
f 128/85/4 127/86/4 122/87/4 121/88/4
f 122/89/5 127/90/5 125/91/5 123/92/5
f 128/93/6 121/94/6 124/95/6 126/96/6
f 129/97/1 130/98/1 131/99/1 132/100/1
f 132/101/2 131/102/2 133/103/2 134/104/2
f 134/105/3 133/106/3 135/107/3 136/108/3
f 136/109/4 135/110/4 130/111/4 129/112/4
f 130/113/5 135/114/5 133/115/5 131/116/5
f 136/117/6 129/118/6 132/119/6 134/120/6
f 137/121/1 138/122/1 139/123/1 140/124/1
f 140/125/2 139/126/2 141/127/2 142/128/2
f 142/129/3 141/130/3 143/131/3 144/132/3
f 144/133/4 143/134/4 138/135/4 137/136/4
f 138/137/5 143/138/5 141/139/5 139/140/5
f 144/141/6 137/142/6 140/143/6 142/144/6
f 145/145/1 146/146/1 147/147/1 148/148/1
f 148/149/2 147/150/2 149/151/2 150/152/2
f 150/153/3 149/154/3 151/155/3 152/156/3
f 152/157/4 151/158/4 146/159/4 145/160/4
f 146/161/5 151/162/5 149/163/5 147/164/5
f 152/165/6 145/166/6 148/167/6 150/168/6
f 153/169/1 154/170/1 155/171/1 156/172/1
f 156/173/2 155/174/2 157/175/2 158/176/2
f 158/177/3 157/178/3 159/179/3 160/180/3
f 160/181/4 159/182/4 154/183/4 153/184/4
f 154/185/5 159/186/5 157/187/5 155/188/5
f 160/189/6 153/190/6 156/191/6 158/192/6
f 161/193/1 162/194/1 163/195/1 164/196/1
f 164/197/2 163/198/2 165/199/2 166/200/2
f 166/201/3 165/202/3 167/203/3 168/204/3
f 168/205/4 167/206/4 162/207/4 161/208/4
f 162/209/5 167/210/5 165/211/5 163/212/5
f 168/213/6 161/214/6 164/215/6 166/216/6
